<svg width="42" height="42" viewBox="0 0 42 42" fill="none" xmlns="http://www.w3.org/2000/svg">
<g clip-path="url(#clip0)">
<path d="M41.805 13.6596V9.69673H31.3838C31.4101 9.62184 31.4337 9.54548 31.4513 9.46622L31.5468 9.03624H33.8792C35.3362 9.03624 36.5211 7.85133 36.5211 6.39431C36.5211 4.93728 35.3362 3.75237 33.8792 3.75237H32.551L32.5582 3.09189H23.3115V4.41285L24.4184 9.46622C24.4361 9.54548 24.4597 9.62184 24.486 9.69673H15.272C15.3453 9.48999 15.3856 9.26774 15.3856 9.03624V6.77821C16.5507 6.26758 17.3671 5.1038 17.3671 3.75237C17.3671 1.93142 15.8856 0.449951 14.0647 0.449951C12.9029 0.449951 11.8441 1.07213 11.2556 2.03643C11.2546 2.03594 11.2536 2.03553 11.2526 2.03503C11.2114 2.01497 11.1696 1.9959 11.1272 1.97798C11.1079 1.96981 11.0883 1.96262 11.0688 1.95495C11.046 1.94595 11.0234 1.93678 11.0004 1.92844C10.9766 1.91978 10.9525 1.91201 10.9285 1.90409C10.9089 1.89765 10.8894 1.89104 10.8696 1.8851C10.8451 1.87759 10.8203 1.87073 10.7955 1.86405C10.7754 1.85852 10.7552 1.85323 10.7348 1.8482C10.7105 1.84217 10.6861 1.83655 10.6615 1.83127C10.6397 1.82656 10.6177 1.82219 10.5956 1.81798C10.5722 1.81352 10.5489 1.80923 10.5254 1.80543C10.5007 1.80147 10.4758 1.79808 10.4508 1.79478C10.4295 1.79197 10.4082 1.78892 10.3868 1.78661C10.3571 1.78339 10.3272 1.78116 10.2972 1.77901C10.2799 1.77777 10.2628 1.77596 10.2455 1.77505C10.198 1.77241 10.1501 1.77092 10.1018 1.77092C8.64475 1.77092 7.45984 2.95583 7.45984 4.41285C7.45984 5.3888 7.99186 6.24206 8.78081 6.69945V9.03624C8.78081 9.26774 8.8211 9.48999 8.89449 9.69673H0.855V13.6596H3.49694V32.1532H2.17597V36.1161H6.13887V41.4H11.4227V36.1161H12.7437V38.758H29.9163V36.1161H31.2373V41.4H36.5211V36.1161H40.484V32.1532H39.1631V13.6596H41.805ZM35.2002 6.39431C35.2002 7.12282 34.6077 7.71527 33.8792 7.71527H31.8404L32.4275 5.07334H33.8792C34.6077 5.07334 35.2002 5.66579 35.2002 6.39431ZM25.7077 9.17957L24.6483 4.41285H31.2214L30.162 9.17957C30.094 9.48405 29.8284 9.69673 29.5167 9.69673H26.3523C26.0406 9.69673 25.7751 9.48405 25.7077 9.17957ZM10.1018 3.09189C10.147 3.09189 10.1918 3.0942 10.2359 3.09866C10.5456 3.13019 10.8321 3.27088 11.0529 3.50205L11.1205 3.5728C11.3092 3.80125 11.4227 4.09401 11.4227 4.41285H12.7437C12.7437 3.85854 12.5719 3.34394 12.2792 2.91867C12.6001 2.22963 13.2942 1.77092 14.0647 1.77092C15.1571 1.77092 16.0461 2.65993 16.0461 3.75237C16.0461 4.84481 15.1571 5.73382 14.0647 5.73382H10.1018C9.37326 5.73382 8.78081 5.14137 8.78081 4.41285C8.78081 3.68434 9.37326 3.09189 10.1018 3.09189ZM10.1018 9.03624V7.05479H14.0647V9.03624C14.0647 9.40017 13.7681 9.69673 13.4042 9.69673H10.7623C10.3983 9.69673 10.1018 9.40017 10.1018 9.03624ZM10.1018 40.079H7.45984V36.1161H10.1018V40.079ZM14.0647 36.1161H15.3856V37.437H14.0647V36.1161ZM25.9534 36.1161V37.437H24.6324V36.1161H25.9534ZM23.3115 37.437H21.9905V36.1161H23.3115V37.437ZM20.6695 37.437H19.3485V36.1161H20.6695V37.437ZM18.0276 37.437H16.7066V36.1161H18.0276V37.437ZM28.5953 37.437H27.2744V36.1161H28.5953V37.437ZM35.2002 40.079H32.5582V36.1161H35.2002V40.079ZM37.8421 32.1532H31.8977V22.2459C31.8977 18.2401 28.6383 14.9806 24.6324 14.9806H18.0276C14.0217 14.9806 10.7623 18.2401 10.7623 22.2459V32.1532H7.45984V33.4741H39.1631V34.7951H3.49694V33.4741H6.13887V32.1532H4.8179V13.6596H35.2002V12.3387H2.17597V11.0177H10.7623H13.4042H26.353H29.5174H40.484V12.3387H36.5211V13.6596H37.8421V32.1532ZM21.4572 32.1467C21.4074 32.1464 21.3581 32.1468 21.3075 32.1453C21.2712 32.1465 21.2353 32.1461 21.1992 32.1466C20.5319 32.0807 20.009 31.5166 20.009 30.8322C20.009 30.1037 20.6015 29.5112 21.33 29.5112C22.0585 29.5112 22.651 30.1037 22.651 30.8322C22.651 31.5178 22.1262 32.0825 21.4572 32.1467ZM23.8709 31.5543C23.9363 31.3246 23.9719 31.0825 23.9719 30.8322C23.9719 29.3752 22.787 28.1903 21.33 28.1903C19.873 28.1903 18.6881 29.3752 18.6881 30.8322C18.6881 31.0825 18.7238 31.3246 18.7891 31.5542C16.1444 30.0759 16.6229 26.6149 16.9629 25.1606C17.5963 25.4413 18.4959 26.0047 18.4959 26.9406H19.8168C19.8168 24.4678 20.7303 22.4936 21.3313 21.4619C21.9324 22.4896 22.8432 24.4572 22.8432 26.9406H24.1641C24.1641 26.0047 25.0637 25.4413 25.6971 25.1606C26.0371 26.6149 26.5162 30.076 23.8709 31.5543ZM26.7717 24.0887L26.5782 23.5088L25.9851 23.6574C25.9091 23.6765 24.8213 23.9586 23.9468 24.6976C23.3854 21.8047 21.9218 19.9468 21.8452 19.8517L21.33 19.2077L20.8148 19.853C20.7382 19.9481 19.2752 21.806 18.7132 24.699C17.8387 23.9599 16.7509 23.6778 16.6749 23.6587L16.0818 23.5101L15.8883 24.09C15.203 26.1463 14.8194 30.0479 17.3345 32.1532H14.7252V22.2459C14.7252 20.425 16.2066 18.9435 18.0276 18.9435H24.6324C26.4534 18.9435 27.9348 20.425 27.9348 22.2459V32.1532H25.3239C27.8408 30.0482 27.4571 26.1454 26.7717 24.0887ZM24.6324 17.6225H18.0276C15.4781 17.6225 13.4042 19.6965 13.4042 22.2459V32.1532H12.0832V22.2459C12.0832 18.9686 14.7503 16.3016 18.0276 16.3016H24.6324C27.9097 16.3016 30.5768 18.9686 30.5768 22.2459V32.1532H29.2558V22.2459C29.2558 19.6965 27.1819 17.6225 24.6324 17.6225Z" fill="#9ABC31"/>
</g>
<defs>
<clipPath id="clip0">
<rect width="40.95" height="40.95" fill="white" transform="translate(0.855 0.449951)"/>
</clipPath>
</defs>
</svg>
