<svg width="42" height="42" viewBox="0 0 42 42" fill="none" xmlns="http://www.w3.org/2000/svg">
<g clip-path="url(#clip0)">
<path d="M37.7836 34.0874H32.5924V28.3292C32.5924 27.998 32.3237 27.7293 31.9925 27.7293H23.0466V18.5044C23.0466 18.1732 22.7782 17.9045 22.4467 17.9045C22.1156 17.9045 21.8469 18.1732 21.8469 18.5044V27.7293H16.6888V13.0254H21.8469V16.105C21.8469 16.4361 22.1156 16.7048 22.4467 16.7048C22.7782 16.7048 23.0466 16.4361 23.0466 16.105V12.4255C23.0466 12.0941 22.7782 11.8257 22.4467 11.8257H3.3642C3.03272 11.8257 2.76435 12.0941 2.76435 12.4255C2.76466 12.9923 2.77216 30.0262 2.7731 32.5534C2.7731 32.8849 3.04178 33.1533 3.37295 33.1533C3.70443 33.1533 3.97281 32.8849 3.97281 32.5534V25.7413H9.13092V40.4453H3.97281V34.9528C3.97281 34.6214 3.70443 34.353 3.37295 34.353C3.04178 34.353 2.7731 34.6214 2.7731 34.9528V41.0451C2.7731 41.3766 3.04178 41.645 3.37295 41.645H37.7836C38.1151 41.645 38.3835 41.3766 38.3835 41.0451V34.6873C38.3835 34.3558 38.1151 34.0874 37.7836 34.0874ZM31.3927 28.929V34.0874H16.6888V28.929H31.3927ZM10.3306 34.0874V19.3835H15.4891V34.0874H10.3306ZM3.96406 13.0254H15.4891V18.1838H3.96406V13.0254ZM3.96406 24.5416V19.3835H9.13124V24.5416H3.96406ZM10.3306 35.2871H25.0349V40.4453H10.3306V35.2871ZM37.1838 40.4453H26.2346V35.2871H37.1838V40.4453Z" fill="#9ABC31"/>
<path d="M37.7836 0.695007H21.88C21.5488 0.695007 21.2802 0.963379 21.2802 1.29486V7.65268C21.2802 7.98416 21.5488 8.25254 21.88 8.25254H30.8259V23.5563C30.8259 23.8878 31.0943 24.1562 31.4258 24.1562H37.7836C38.1151 24.1562 38.3835 23.8878 38.3835 23.5563V1.29486C38.3835 0.963379 38.1151 0.695007 37.7836 0.695007ZM22.4799 1.89471H37.1838V7.05283H22.4799V1.89471ZM37.1838 22.9564H32.0257V8.25254H37.1838V22.9564Z" fill="#9ABC31"/>
</g>
<defs>
<clipPath id="clip0">
<rect width="40.95" height="40.95" fill="white" transform="translate(0.125 0.695007)"/>
</clipPath>
</defs>
</svg>
