<svg width="39" height="40" viewBox="0 0 39 40" fill="none" xmlns="http://www.w3.org/2000/svg">
<g clip-path="url(#clip0)">
<path d="M14.1881 23.6788H16.4326C18.0854 23.6788 19.6527 23.0492 20.846 21.9059L27.1568 15.8597C27.1604 15.8562 27.1641 15.8526 27.1677 15.849L28.3267 14.69C28.6436 14.373 28.7379 13.9162 28.6094 13.5161L31.9019 10.2235C33.1753 8.94981 34.7408 9.56372 35.9887 8.08068C36.5012 7.49954 36.5008 6.76477 35.9872 6.25097L33.8624 4.12617C33.3566 3.62051 32.5309 3.62357 32.0216 4.13289L31.2241 4.93044C31.0054 5.14916 31.0054 5.50359 31.2241 5.72231C31.4428 5.94088 31.7972 5.94088 32.0159 5.72231L32.8134 4.92476C32.8862 4.85191 33.0016 4.84892 33.0705 4.91804L35.1953 7.04276C35.2461 7.09367 35.3093 7.15675 35.1519 7.33673C34.4644 8.01663 33.7127 8.16637 33.3905 8.23064C31.8984 8.52677 31.0986 9.45249 31.0618 9.47989L29.66 8.07806L30.3272 7.41093C30.5458 7.19221 30.5458 6.83778 30.3272 6.61906C30.1085 6.40049 29.754 6.40049 29.5354 6.61906L13.6866 22.4682C13.4831 22.6718 13.4228 22.9751 13.5329 23.2411C13.643 23.5071 13.9003 23.6788 14.1881 23.6788ZM36.0264 8.03074C36.0134 8.05022 36.0012 8.06582 35.9918 8.07702C36.0042 8.06216 36.0157 8.04671 36.0264 8.03074ZM33.5478 9.33955C33.5449 9.34059 33.5418 9.34164 33.5382 9.34276C33.5415 9.34171 33.5446 9.34067 33.5478 9.33955ZM27.535 13.8983L26.7696 14.6636L24.9221 12.8161L25.7138 12.0244L27.5116 13.8221C27.5126 13.8231 27.5135 13.824 27.5145 13.8249L27.535 13.8454C27.5494 13.86 27.5494 13.8838 27.535 13.8983ZM30.2701 10.2717L27.9074 12.6345L26.5056 11.2326L28.8683 8.86986L30.2701 10.2717ZM24.1302 13.608L25.9691 15.4469L20.0714 21.0973C19.0875 22.04 17.7953 22.5591 16.4326 22.5591H15.1793L24.1302 13.608Z" fill="#9ABC31"/>
<path d="M37.7851 32.4761C38.0944 32.4761 38.345 32.2255 38.345 31.9162V29.3906C38.345 28.8349 37.8929 28.3828 37.3372 28.3828H36.2175V25.9567C36.2175 25.6474 35.9669 25.3968 35.6577 25.3968H9.68C9.37073 25.3968 9.12014 25.6474 9.12014 25.9567C9.12014 26.2659 9.37073 26.5165 9.68 26.5165H35.0978V28.3827H3.37221V26.5165H7.29125C7.60052 26.5165 7.85111 26.2659 7.85111 25.9567C7.85111 25.6474 7.60052 25.3968 7.29125 25.3968H2.81234C2.50308 25.3968 2.25248 25.6474 2.25248 25.9567V28.3828H1.13275C0.577071 28.3828 0.125 28.8349 0.125 29.3906V35.2133C0.125 35.769 0.577071 36.221 1.13275 36.221H37.3372C37.8929 36.221 38.345 35.769 38.345 35.2133V34.305C38.345 33.9958 38.0944 33.7452 37.7851 33.7452C37.4759 33.7452 37.2253 33.9958 37.2253 34.305V35.1013H20.3856C19.1231 34.2985 17.8164 33.474 16.3231 33.0223C14.4062 32.4426 12.23 32.4835 9.85483 33.1436C8.25317 33.5888 6.74968 34.2487 4.99939 35.1013H1.24473V29.5026H19.9951C21.1043 30.3191 22.2512 31.1632 23.5733 31.6261C24.3498 31.8978 25.1922 32.0336 26.0787 32.0336C27.0885 32.0336 28.1559 31.8575 29.2486 31.5059C30.6614 31.0513 31.9832 30.3761 33.5286 29.5027H37.2253V31.9164C37.2253 32.2255 37.4759 32.4761 37.7851 32.4761ZM10.1546 34.2223C12.2914 33.6285 14.3122 33.5841 15.9989 34.0941C16.7783 34.3298 17.5217 34.691 18.2422 35.1012H7.67853C8.51713 34.7473 9.32527 34.4529 10.1546 34.2223ZM28.9056 30.4399C27.0622 31.033 25.3925 31.0765 23.9433 30.569C23.2702 30.3334 22.6258 29.9686 22.0002 29.5544H31.0551C30.3259 29.9119 29.6245 30.2086 28.9056 30.4399Z" fill="#9ABC31"/>
</g>
<defs>
<clipPath id="clip0">
<rect width="38.22" height="38.22" fill="white" transform="translate(0.125 0.875)"/>
</clipPath>
</defs>
</svg>
