<svg width="41" height="40" viewBox="0 0 41 40" fill="none" xmlns="http://www.w3.org/2000/svg">
<g clip-path="url(#clip0)">
<path d="M3.06122 37.061H3.72081C5.54192 37.0588 7.01754 35.5832 7.01965 33.7621V29.1438H9.65861C10.3871 29.1447 10.9775 29.7351 10.9781 30.4636V31.4529C10.9754 35.9426 14.5663 39.6084 19.0547 39.6984C23.5435 39.7881 27.2784 36.2688 27.4551 31.783H28.7912C29.6422 31.7858 30.3991 31.2425 30.6688 30.4355C30.9385 29.6282 30.6603 28.7394 29.9784 28.2299L31.8967 26.3116C31.9281 26.2693 31.9596 26.2267 31.991 26.1844C32.0133 26.146 32.0314 26.1053 32.0456 26.0633C32.0523 26.0452 32.0637 26.0307 32.0689 26.0117L35.8987 11.3307H36.9602C37.4606 11.3325 37.9182 11.0495 38.1405 10.6013L38.8004 9.28187C39.0048 8.87295 38.9831 8.38702 38.7427 7.99803C38.502 7.60904 38.0773 7.37227 37.6198 7.37227H35.3553C35.0095 3.2737 31.5851 0.121332 27.4717 0.11499H23.5133C19.4002 0.121332 15.9757 3.2737 15.6299 7.37227H13.3652C12.9079 7.37227 12.483 7.60904 12.2426 7.99803C12.0022 8.38702 11.9802 8.87295 12.1849 9.28187L12.8445 10.6013C13.0668 11.0495 13.5246 11.3325 14.0251 11.3307H15.0866L18.9164 26.0117C18.9212 26.0307 18.9333 26.0452 18.9396 26.0633C18.9535 26.1053 18.972 26.146 18.9943 26.1844C19.0257 26.2267 19.0568 26.2693 19.0885 26.3116L21.0066 28.2299C20.325 28.7394 20.0468 29.6282 20.3165 30.4355C20.5862 31.2425 21.343 31.7858 22.1938 31.783H23.4967C23.32 34.0798 21.3596 35.8263 19.0577 35.7376C16.7558 35.6491 14.9359 33.7567 14.9365 31.4529V30.4636C14.9332 27.5498 12.5721 25.1887 9.65861 25.1854H7.01965V20.5673C7.01754 18.7462 5.54192 17.2706 3.72081 17.2685H3.06122C2.6967 17.2685 2.40133 17.5639 2.40133 17.9281V36.4011C2.40133 36.7656 2.6967 37.061 3.06122 37.061ZM26.8121 25.1854H24.1732V21.2269C24.1732 20.4982 24.7639 19.9074 25.4926 19.9074C26.2214 19.9074 26.8121 20.4982 26.8121 21.2269V25.1854ZM23.5133 26.5048H29.8376L28.5182 27.8243H22.4671L21.1476 26.5048H23.5133ZM23.5133 1.43447H27.4717C30.8584 1.439 33.6931 4.00305 34.0365 7.37227H16.9488C17.2919 4.00305 20.1268 1.439 23.5133 1.43447ZM13.3652 8.69174H37.6198L36.9602 10.0112H14.0251L13.3652 8.69174ZM22.8537 11.3307H34.5348L30.9203 25.1854H28.1316V21.2269C28.1316 19.7694 26.9501 18.588 25.4926 18.588C24.0351 18.588 22.8537 19.7694 22.8537 21.2269V25.1854H20.0646L16.4502 11.3307H22.8537ZM21.5342 29.8037C21.5345 29.4395 21.8296 29.1444 22.1938 29.1438H28.7912C29.1557 29.1438 29.4511 29.4395 29.4511 29.8037C29.4511 30.1679 29.1557 30.4636 28.7912 30.4636H22.1938C21.8296 30.463 21.5345 30.1679 21.5342 29.8037ZM9.65861 26.5048C11.8439 26.5073 13.6146 28.2782 13.617 30.4636V31.4529C13.6158 34.4848 16.0259 36.9682 19.0565 37.0576C22.0869 37.1467 24.6392 34.8098 24.8161 31.783H26.1356C25.9595 35.54 22.8156 38.4695 19.0553 38.3798C15.295 38.2901 12.2945 35.2145 12.2976 31.4529V30.4636C12.2961 29.0067 11.1155 27.8261 9.65861 27.8243H7.01965V26.5048H9.65861ZM3.72081 18.588C4.81348 18.5892 5.69897 19.4747 5.70018 20.5673V33.7621C5.69897 34.8548 4.81348 35.7403 3.72081 35.7415V18.588Z" fill="#9ABC31"/>
<path d="M25.4927 16.6086C25.8569 16.6086 26.1523 16.3133 26.1523 15.949V14.6296C26.1523 14.265 25.8569 13.9697 25.4927 13.9697C25.1281 13.9697 24.8328 14.265 24.8328 14.6296V15.949C24.8328 16.3133 25.1281 16.6086 25.4927 16.6086Z" fill="#9ABC31"/>
<path d="M21.0676 16.4153L22.3871 17.7348C22.6459 17.9849 23.0576 17.9813 23.3122 17.727C23.5665 17.4724 23.5701 17.061 23.32 16.8019L22.0005 15.4824C21.7417 15.2324 21.3301 15.236 21.0758 15.4906C20.8212 15.7452 20.8176 16.1565 21.0676 16.4153Z" fill="#9ABC31"/>
<path d="M28.1316 17.9281C28.3065 17.9284 28.4744 17.8589 28.5979 17.7348L29.9174 16.4153C30.1674 16.1565 30.1638 15.7452 29.9095 15.4906C29.6549 15.236 29.2436 15.2324 28.9848 15.4824L27.665 16.8019C27.4765 16.9907 27.4201 17.2746 27.5221 17.521C27.6242 17.7674 27.8649 17.9281 28.1316 17.9281Z" fill="#9ABC31"/>
<path d="M20.8743 4.73328H20.2147C19.8502 4.73328 19.5548 5.02864 19.5548 5.39287C19.5548 5.75739 19.8502 6.05276 20.2147 6.05276H20.8743C21.2388 6.05276 21.5342 5.75739 21.5342 5.39287C21.5342 5.02864 21.2388 4.73328 20.8743 4.73328Z" fill="#9ABC31"/>
<path d="M30.111 4.73328H23.5133C23.149 4.73328 22.8537 5.02864 22.8537 5.39287C22.8537 5.75739 23.149 6.05276 23.5133 6.05276H30.111C30.4752 6.05276 30.7706 5.75739 30.7706 5.39287C30.7706 5.02864 30.4752 4.73328 30.111 4.73328Z" fill="#9ABC31"/>
</g>
<defs>
<clipPath id="clip0">
<rect width="39.585" height="39.585" fill="white" transform="translate(0.855 0.11499)"/>
</clipPath>
</defs>
</svg>
