<svg width="42" height="40" viewBox="0 0 42 40" fill="none" xmlns="http://www.w3.org/2000/svg">
<path d="M3.69549 1.26098H2.15318C1.125 1.26098 1.125 2.79168 1.125 2.79168L1.12503 14.527L1.12503 14.5271C1.12506 15.0373 1.12509 15.5475 2.15321 15.5475H6.26589C6.67717 15.5475 7.29412 15.5475 7.80817 15.0373C9.17908 13.8467 11.947 10.9996 12.4673 9.967C12.9814 8.94657 12.0311 8.00334 11.9532 7.92608L11.9532 7.92607C10.2396 6.22529 6.57439 3.09782 5.75185 2.28144C4.72367 1.26098 4.03821 1.26098 3.69549 1.26098Z" stroke="#9ABC31"/>
<path d="M22.2027 1.02501L14.4914 1.02501H11.9209C8.83636 1.02501 9.52182 1.53524 9.86454 2.04547C9.86454 2.04547 14.5973 6.44413 15.5195 7.1478C16.5477 7.9323 18.09 7.65804 18.09 7.65804C18.09 7.65804 21.8943 6.26126 22.7168 5.85308C23.5394 5.44489 23.745 4.66253 23.745 4.32238V2.28144C23.745 1.62568 22.7168 1.02501 22.2027 1.02501Z" stroke="#9ABC31"/>
<path d="M26.3155 2.04547C26.3155 1.2291 27.8577 1.02501 28.3718 1.02501H32.9986C34.6437 1.02501 34.5409 3.06594 34.5409 3.06594C34.5409 3.06594 34.0268 7.42207 33.5127 8.16827C33.0485 8.84218 31.9705 9.18874 31.4564 9.18874H27.8577C27.3436 9.18874 26.3155 8.16827 26.3155 7.65804V2.04547Z" stroke="#9ABC31"/>
<path d="M35.5691 9.69895L37.1114 2.55571C37.1114 2.55571 37.6255 1.02499 38.6536 1.02499C39.6818 1.02499 40.3673 1.7053 40.71 2.55568V13.2706C40.71 13.2706 40.1959 15.3115 39.1677 14.291L36.5973 11.7399C35.7747 10.9235 35.5691 10.2092 35.5691 9.69895Z" stroke="#9ABC31"/>
<path d="M25.8014 12.4861C25.8014 11.6697 26.8296 11.4656 27.3437 11.4656C27.8578 11.6357 29.8113 11.7399 31.4564 11.7399C33.1015 11.7399 33.3414 12.6562 33.5128 12.9963C34.8837 14.6971 37.9339 18.4048 39.1678 19.6294C40.4016 20.8539 40.3673 21.8404 40.1959 22.1805V28.8136C40.1959 30.0381 38.4823 30.0041 37.6255 29.834C35.7405 29.4939 31.7648 28.7115 30.9423 28.3033C29.9141 27.7931 29.9141 27.2829 29.9141 26.7726V23.7112C29.9141 22.8949 29.2287 22.6908 28.8859 22.6908C28.3718 22.1805 27.138 21.1601 26.3155 21.1601C25.4929 21.1601 25.63 19.7994 25.8014 19.1191V12.4861Z" stroke="#9ABC31"/>
<path d="M29.9141 32.3852C29.9141 31.1606 31.285 31.1947 31.9705 31.3647C33.8555 31.875 37.8311 32.8954 38.6537 32.8954C39.4762 32.8954 39.6819 33.9159 39.6819 34.4261C39.8532 34.7663 40.1959 35.7527 40.1959 36.9773C40.1959 38.2019 39.1678 38.8481 38.6537 39.0182H31.9705C30.3254 39.0182 29.9141 37.6576 29.9141 36.9773V32.3852Z" stroke="#9ABC31"/>
<path d="M12.9491 36.9773L15.5722 33.4057C15.5722 33.4057 17.6787 33.1697 18.09 33.1697C18.5013 33.1697 18.9468 33.6799 19.1182 33.6799C21.0032 34.1902 22.9225 34.9364 23.745 34.9364C24.7732 34.9364 25.2873 34.9364 26.8296 35.9568C28.3718 36.9773 25.8014 39.0182 25.2873 39.0182C24.7732 39.0182 13.9773 39.5285 12.435 39.0182C11.2012 38.61 12.2637 37.4875 12.9491 36.9773Z" stroke="#9ABC31"/>
<path d="M23.745 14.8013L23.745 9.18874C23.7451 8.80288 23.2309 8.67849 22.7168 8.16826C22.2027 7.65803 20.9249 8.51703 20.6605 8.67849C19.4609 9.52888 17.0618 10.7194 17.0618 10.7194C17.0618 10.7194 15.5195 11.2297 15.0055 11.7399C14.4914 12.2501 13.1547 14.087 11.9209 15.3115C10.6871 16.5361 10.3786 17.5225 10.3786 17.8627V22.4548C10.3786 23.4906 11.7495 23.9068 12.435 23.9855H16.0336C16.4449 23.9855 17.506 23.2745 18.09 22.8429C19.5624 21.2336 22.1986 17.9128 23.0212 17.5046C23.8438 17.0964 23.745 15.3115 23.745 14.8013Z" stroke="#9ABC31"/>
<path d="M20.6605 24.4957L22.7168 22.4548L23.2309 21.9446C23.745 21.4343 25.6988 22.8429 26.3155 23.4753C26.8088 23.9811 27.5492 25.3868 27.8577 26.0264C28.0291 27.0469 28.269 29.496 27.8577 31.1288C27.3436 33.1697 26.3155 32.6595 25.8014 32.6595C25.2873 32.6595 17.0618 31.1288 16.0336 30.1083C15.0055 29.0878 16.0336 27.0469 16.5477 27.0469C17.0618 27.0469 18.09 25.5162 19.1182 25.5162C20.1464 25.5162 20.1464 25.006 20.6605 24.4957Z" stroke="#9ABC31"/>
<path d="M3.18136 29.0878L7.29409 27.0469H8.32227C9.35045 27.0469 10.5843 27.5571 11.4068 27.5571C12.435 27.5571 12.9491 30.1083 12.9491 31.1288C12.9491 31.9451 12.2636 33.1697 11.9209 33.6799C11.4068 34.3602 10.173 36.027 9.35045 37.2516C8.52791 38.4761 7.63682 38.7823 7.29409 38.7823H3.18136C1.125 38.7823 1.29636 37.4216 1.63909 36.7413V31.1288C1.63909 30.3124 2.66727 29.428 3.18136 29.0878Z" stroke="#9ABC31"/>
<path d="M5.23773 17.3525H3.18136L1.63909 18.8832C1.63909 19.3934 1.33066 25.8223 2.15318 27.0469C2.9757 28.2714 3.52408 27.5571 3.69545 27.0469C4.55227 26.3666 6.47155 24.9039 7.29409 24.4957C8.11664 24.0875 7.97955 22.965 7.80818 22.4548V18.8832C7.80819 18.475 6.09455 17.6926 5.23773 17.3525Z" stroke="#9ABC31"/>
</svg>
