<svg width="56" height="56" viewBox="0 0 56 56" fill="none" xmlns="http://www.w3.org/2000/svg">
<path d="M16.0617 34.4622L16.7417 31.1452L17.884 22.0031H16.1906L14.6771 34.1115C15.1497 34.1968 15.6121 34.3137 16.0617 34.4622Z" fill="#9ABC31"/>
<path d="M12.8788 45.8906C12.4087 45.8906 12.0256 46.2728 12.0256 46.7438V47.5969H9.06701C10.0259 48.6616 11.4097 49.3031 12.8788 49.3031C14.3478 49.3031 15.7316 48.6616 16.6905 47.5969H13.7319V46.7438C13.7319 46.2728 13.3488 45.8906 12.8788 45.8906Z" fill="#9ABC31"/>
<path d="M12.8788 37.3594C15.3119 37.3594 17.5581 38.6877 18.7704 40.7719H20.6934C19.3531 37.7108 16.2904 35.6531 12.8796 35.6531C9.46882 35.6531 6.4061 37.7108 5.06584 40.7719H6.98878C8.19937 38.6877 10.4456 37.3594 12.8788 37.3594Z" fill="#9ABC31"/>
<path d="M9.06701 40.7719H16.6897C15.7308 39.7072 14.347 39.0656 12.8779 39.0656C11.4088 39.0656 10.0259 39.7072 9.06701 40.7719Z" fill="#9ABC31"/>
<path d="M20.6925 47.5969H18.7696C17.5573 49.681 15.311 51.0094 12.8779 51.0094C10.4448 51.0094 8.19851 49.681 6.98622 47.5969H5.06498C6.40524 50.6579 9.46796 52.7156 12.8788 52.7156C16.2895 52.7156 19.3523 50.6579 20.6925 47.5969Z" fill="#9ABC31"/>
<path d="M33.4673 22.0031L35.4098 37.5419C35.8995 37.1734 36.4259 36.8535 36.983 36.5847L35.1599 22.0031H33.4673Z" fill="#9ABC31"/>
<path d="M14.585 18.5906H36.7671V20.2969H14.585V18.5906Z" fill="#9ABC31"/>
<path d="M43.0828 30.6018L43.9385 26.7516C44.1125 25.9659 44.7976 25.4156 45.6038 25.4156H47.0037V23.7094H44.9196C43.7107 23.7094 42.6835 24.5335 42.4208 25.7134L41.3492 30.5344H41.885C42.2894 30.5344 42.6886 30.5591 43.0828 30.6018Z" fill="#9ABC31"/>
<path d="M12.8787 44.1844C13.9912 44.1844 14.9399 44.8976 15.2922 45.8906H22.2631V42.4781H3.49437V45.8906H10.4653C10.8176 44.8976 11.7663 44.1844 12.8787 44.1844Z" fill="#9ABC31"/>
<path d="M33.027 32.2406H32.3871L31.7106 36.9797L33.8178 38.5606L33.027 32.2406Z" fill="#9ABC31"/>
<path d="M19.8531 36.7084L20.5569 36.8646V32.9069L18.3106 32.3456L17.9412 35.3033C18.6305 35.6975 19.2721 36.1676 19.8531 36.7084Z" fill="#9ABC31"/>
<path d="M41.0319 42.4781C39.6208 42.4781 38.4725 43.6264 38.4725 45.0375C38.4725 46.4486 39.6208 47.5969 41.0319 47.5969C42.4429 47.5969 43.5912 46.4486 43.5912 45.0375C43.5912 43.6264 42.4429 42.4781 41.0319 42.4781ZM41.0319 45.8906C40.5609 45.8906 40.1787 45.5084 40.1787 45.0375C40.1787 44.5666 40.5609 44.1844 41.0319 44.1844C41.5028 44.1844 41.885 44.5666 41.885 45.0375C41.885 45.5084 41.5028 45.8906 41.0319 45.8906Z" fill="#9ABC31"/>
<path d="M41.0319 35.6531C45.318 35.6531 48.9344 38.5452 50.0529 42.4781H51.2694V41.625C51.2694 36.4508 47.0592 32.2406 41.885 32.2406H38.1594L38.6261 35.9773C39.3956 35.7726 40.1993 35.6531 41.0319 35.6531Z" fill="#9ABC31"/>
<path d="M26.4289 45.8906L25.7481 39.766L21.6054 38.8455C21.9756 39.4469 22.2862 40.0902 22.5267 40.7718H23.9694V45.8906H26.4289Z" fill="#9ABC31"/>
<path d="M52.9756 45.8906V44.1844H50.3727C50.3983 44.4659 50.4162 44.7491 50.4162 45.0375C50.4162 45.3258 50.3983 45.6091 50.3727 45.8906H52.9756Z" fill="#9ABC31"/>
<path d="M48.6597 44.1844C48.495 42.7059 47.9089 41.3554 47.0251 40.2506L45.858 41.4177L44.6517 40.2114L45.8188 39.0443C44.714 38.1604 43.3635 37.5744 41.885 37.4097V39.0656H40.1788V37.4097C38.7003 37.5744 37.3498 38.1604 36.245 39.0443L37.4121 40.2114L36.2057 41.4177L35.0387 40.2506C34.1548 41.3554 33.5687 42.7059 33.4041 44.1844H35.06V45.8906H33.4041C33.5687 47.3691 34.1548 48.7196 35.0387 49.8244L36.2057 48.6573L37.4121 49.8636L36.245 51.0307C37.3498 51.9145 38.7003 52.5006 40.1788 52.6653V51.0094H41.885V52.6653C43.3635 52.5006 44.714 51.9145 45.8188 51.0307L44.6517 49.8636L45.858 48.6573L47.0251 49.8244C47.9089 48.7196 48.495 47.3691 48.6597 45.8906H47.0038V44.1844H48.6597ZM41.0319 49.3031C38.6798 49.3031 36.7663 47.3896 36.7663 45.0375C36.7663 42.6854 38.6798 40.7719 41.0319 40.7719C43.3839 40.7719 45.2975 42.6854 45.2975 45.0375C45.2975 47.3896 43.3839 49.3031 41.0319 49.3031Z" fill="#9ABC31"/>
<path d="M33.0543 40.1201L30.5103 38.2125H27.91L27.4049 39.2217L27.7666 42.4781H32.0118C32.2498 41.6378 32.6038 40.8478 33.0543 40.1201Z" fill="#9ABC31"/>
<path d="M27.956 44.1844L28.1454 45.8906H31.691C31.6654 45.6091 31.6475 45.3258 31.6475 45.0375C31.6475 44.7491 31.6654 44.4659 31.691 44.1844H27.956Z" fill="#9ABC31"/>
<path d="M22.0132 32.8438L23.9694 30.8876L25.0725 31.9906L26.2788 30.7843L22.8663 27.3718L21.66 28.5781L22.7631 29.6812L20.8068 31.6374L22.0132 32.8438Z" fill="#9ABC31"/>
<path d="M12.8787 52.7156H1.78812V54.4219H54.6819V52.7156H12.8787Z" fill="#9ABC31"/>
</svg>
